<?xml version="1.0" encoding="UTF-8"?>
<svg xmlns="http://www.w3.org/2000/svg" xml:space="preserve" width="26.9948mm" height="30.6734mm" version="1.0" shape-rendering="geometricPrecision" text-rendering="geometricPrecision" image-rendering="optimizeQuality" fill-rule="evenodd" clip-rule="evenodd"
viewBox="0 0 784.69 891.62"
 xmlns:xlink="http://www.w3.org/1999/xlink">
 <g id="Capa_x0020_1">
  <metadata id="CorelCorpID_0Corel-Layer"/>
  <path fill="#2B3151" d="M392.46 877.12c206.3,-181.11 336.82,-416.85 377.73,-717.19 -141.82,-21.42 -268.56,-68.37 -377.5,-145.42 -117.35,77.18 -243.14,126.63 -378.19,145.66 30.27,282.86 163.08,518.71 377.96,716.95z"/>
  <path fill="#F07D24" d="M770.2 159.93c-141.82,-21.42 -268.56,-68.37 -377.5,-145.42 -117.35,77.18 -243.14,126.63 -378.19,145.66 30.27,282.86 163.08,518.71 377.96,716.95 206.3,-181.11 336.82,-416.85 377.73,-717.19zm-114.07 410.12c-64.24,120.45 -149.32,225.84 -253.49,317.4 -5.47,5.4 -14.28,5.6 -20,0.34 -108.58,-100.17 -196.5,-209.98 -261.16,-330.6 -64.73,-120.75 -106.06,-252.19 -121.39,-395.49 -0.82,-7.75 4.65,-14.82 12.43,-15.89 66.43,-9.35 130.56,-26.19 192.5,-50.17 61.75,-23.91 121.34,-54.9 178.85,-92.64 4.9,-3.76 11.86,-4.09 17.18,-0.35 53.45,37.81 111.32,68.25 173.24,91.87 62.03,23.66 128.17,40.5 198.07,51.05l-0.01 0.03c7.81,1.17 13.27,8.41 12.21,16.26 -20.69,151.9 -64.09,287.55 -128.44,408.19z"/>
  <path fill="#F07D24" d="M169.58 272.97l0 0 57.14 -100.27 3.84 2.82 27.91 20.5 22.49 16.53 86.11 -129.53 24.04 -36.17 0 0 0 -0 23.58 36.47 81.86 126.59 18.9 -13.89 27.91 -20.5 3.84 -2.82 57.14 100.27 0 -0 26.32 46.2 -110.1 349.72 -37.02 -12.22 104.77 -332.79 -53.17 -93.3 -17.1 12.57 39.03 60.36 -33.44 21.63 -37.74 -58.36 -98.92 72.68 -95.76 -70.35 -34.66 52.14 131.49 390.98 60.76 -171.81 36.8 15.4 -98.4 278.26 -0.1 -0.29 -0.1 0.29 -174.42 -518.62 0.6 -0.91 27.3 -41.07 18.59 -27.97 -20.29 -14.91 -53.17 93.3 104.77 332.79 -37.02 12.22 -110.1 -349.72 26.32 -46.2zm143.51 -36.82l73.87 54.27 77.43 -56.89 -73.75 -114.05 -77.55 116.67z"/>
 </g>
</svg>
